<?xml version="1.0" encoding="UTF-8"?>
<svg width="300px" height="105px" viewBox="0 0 300 105" version="1.1" xmlns="http://www.w3.org/2000/svg" xmlns:xlink="http://www.w3.org/1999/xlink">
    <!-- Generator: Sketch 55.1 (78136) - https://sketchapp.com -->
    <title>left-arrow</title>
    <desc>Created with Sketch.</desc>
    <g id="Page-1" stroke="none" stroke-width="1" fill="none" fill-rule="evenodd">
        <g id="left-arrow" fill="#B7B7B7" fill-rule="nonzero">
            <g transform="translate(150.500000, 53.000000) rotate(-90.000000) translate(-150.500000, -53.000000) translate(97.500000, -97.500000)" id="XMLID_29_">
                <path d="M15.936625,91.4599684 L44.7497917,46.5563252 L44.7497917,286.363634 C44.7497917,293.894545 48.6674583,300 53.4997917,300 C58.332125,300 62.2497917,293.894545 62.2497917,286.363634 L62.2497917,46.5563252 L91.0629583,91.4599684 C92.7709583,94.1226961 95.010375,95.4545145 97.2497917,95.4545145 C99.4892083,95.4545145 101.728625,94.1226961 103.436625,91.4599684 C106.853792,86.1354221 106.853792,77.5008754 103.436625,72.17542 L59.686625,3.99359151 C56.2700417,-1.33186384 50.7295417,-1.33186384 47.312375,3.99359151 L3.562375,72.17542 C0.145208333,77.4999663 0.145208333,86.1345131 3.562375,91.4599684 C6.97954167,96.7845147 12.5200417,96.7845147 15.936625,91.4599684 Z"></path>
            </g>
        </g>
    </g>
</svg>