<?xml version="1.0" encoding="UTF-8"?>
<svg width="298px" height="427px" viewBox="0 0 298 427" version="1.1" xmlns="http://www.w3.org/2000/svg" xmlns:xlink="http://www.w3.org/1999/xlink">
    <!-- Generator: Sketch 55.1 (78136) - https://sketchapp.com -->
    <title>micro</title>
    <desc>Created with Sketch.</desc>
    <defs>
        <polygon id="path-1" points="14.121835 14.4058207 311.145074 14.4058207 311.145074 440.926545 14.121835 440.926545"></polygon>
    </defs>
    <g id="Page-1" stroke="none" stroke-width="1" fill="none" fill-rule="evenodd">
        <g id="micro" transform="translate(-14.000000, -24.000000)">
            <g id="g17472" transform="translate(168.187900, 233.072013) scale(-1, 1) rotate(-180.000000) translate(-168.187900, -233.072013) translate(0.378160, 0.720066)">
                <g id="g17474-Clipped">
                    <mask id="mask-2" fill="white">
                        <use xlink:href="#path-1"></use>
                    </mask>
                    <g id="path17478"></g>
                    <g id="g17474" mask="url(#mask-2)" fill-rule="nonzero">
                        <g id="g17480" transform="translate(85.283491, 164.683315)" fill="#4285F4">
                            <path d="M77.450649,0 C112.664877,0 140.985998,28.5534726 140.985998,63.7418841 L141.192533,212.498764 C141.192533,247.738809 112.664877,276.240648 77.450649,276.240648 C42.2622375,276.240648 13.7087649,247.738809 13.7087649,212.498764 L13.7087649,63.7418841 C13.7087649,28.5534726 42.2622375,0 77.450649,0" id="path17482"></path>
                        </g>
                        <g id="g17484" transform="translate(141.484264, 3.851879)" fill="#34A853">
                            <path d="M0,77.450649 L0,77.450649 L0,10.584922 L42.4945894,10.584922 L42.4945894,76.7277763 C35.5756648,75.7467347 28.5792895,75.7983685 21.3763791,75.7983685 C14.121835,75.7983685 6.99637529,76.4437906 0,77.450649" id="path17486"></path>
                        </g>
                        <g id="g17488" transform="translate(9.833651, 100.982738)" fill="#FBBC05">
                            <path d="M77.450649,51.633766 C58.47524,70.7898932 46.7027413,94.2832567 46.7027413,125.934755 L4.28560258,125.934755 C4.28560258,83.4401659 20.9116752,48.5099232 47.7870504,21.6087311 L48.096853,21.8927168 C47.9935855,21.9959843 47.890318,22.073435 47.7870504,22.1767025 L77.450649,51.633766 Z" id="path17490"></path>
                        </g>
                        <g id="g17492" transform="translate(36.352753, 72.029104)" fill="#EA4335">
                            <path d="M232.351947,154.901298 C232.351947,101.770153 185.132868,49.4135141 126.451093,49.4135141 C97.097297,49.4135141 70.5317244,61.7023504 51.2981465,80.9617451 L50.9367102,80.6003087 L21.2731116,51.1174283 C21.3763791,51.0399777 21.4796467,50.9367102 21.5829142,50.8592595 C43.7079829,28.8116414 72.7519763,13.9669337 105.126348,9.268261 C112.14854,8.26140256 119.248183,7.61551215 126.502727,7.61551215 C133.731454,7.61551215 140.702012,7.56434672 147.620937,8.54538827 C219.675857,18.8463246 274.769086,80.5228581 274.769086,154.901298 L232.351947,154.901298 Z" id="path17494"></path>
                        </g>
                    </g>
                </g>
            </g>
        </g>
    </g>
</svg>