<?xml version="1.0" encoding="UTF-8"?>
<svg width="300px" height="105px" viewBox="0 0 300 105" version="1.1" xmlns="http://www.w3.org/2000/svg" xmlns:xlink="http://www.w3.org/1999/xlink">
    <!-- Generator: Sketch 55.1 (78136) - https://sketchapp.com -->
    <title>right-arrow</title>
    <desc>Created with Sketch.</desc>
    <g id="Page-1" stroke="none" stroke-width="1" fill="none" fill-rule="evenodd">
        <g id="right-arrow" transform="translate(-1.000000, -1.000000)" fill="#B7B7B7" fill-rule="nonzero">
            <g id="left-arrow" transform="translate(150.500000, 53.000000) rotate(90.000000) translate(-150.500000, -53.000000) translate(98.000000, -97.000000)">
                <path d="M15.4344199,91.1836858 L44.0883978,46.41571 L44.0883978,285.498489 C44.0883978,293.006647 47.9844199,299.093656 52.7900552,299.093656 C57.5956906,299.093656 61.4917127,293.006647 61.4917127,285.498489 L61.4917127,46.41571 L90.1456906,91.1836858 C91.8442541,93.8383686 94.0712983,95.1661631 96.2983425,95.1661631 C98.5253867,95.1661631 100.752431,93.8383686 102.450994,91.1836858 C105.849282,85.8752266 105.849282,77.2667674 102.450994,71.9574018 L58.9427072,3.981571 C55.545,-1.32779456 50.0351105,-1.32779456 46.6368232,3.981571 L3.12853591,71.9574018 C-0.269751381,77.265861 -0.269751381,85.8743202 3.12853591,91.1836858 C6.5268232,96.492145 12.0367127,96.492145 15.4344199,91.1836858 Z" id="XMLID_29_"></path>
            </g>
        </g>
    </g>
</svg>